# xmcd CD database file
#
# Track frame offsets:
#	150
#	8408
#	32025
#
# Disc length: 720 seconds
#
# Revision: 0
# Processed by: cddbd v1.5.2PL0 Copyright (c) Steve Scherf et al.
# Submitted via: CDex 1.50
#
DISCID=1302ce03
DTITLE=Pulsar - Free fall
DYEAR=2008
DGENRE=Jazz
TTITLE0=Free fall
TTITLE1=Love is not easy
TTITLE2=Ghosts
EXTD=YEAR: 2008
EXTT0=
EXTT1=
EXTT2=
PLAYORDER=
